<?xml version="1.0" encoding="UTF-8" standalone="no"?>
<svg
   xmlns:a="http://ns.adobe.com/AdobeSVGViewerExtensions/3.0/"
   xmlns:xapMM="http://ns.adobe.com/xap/1.0/mm/"
   xmlns:xap="http://ns.adobe.com/xap/1.0/"
   xmlns:x="adobe:ns:meta/"
   xmlns:dc="http://purl.org/dc/elements/1.1/"
   xmlns:cc="http://creativecommons.org/ns#"
   xmlns:rdf="http://www.w3.org/1999/02/22-rdf-syntax-ns#"
   xmlns:svg="http://www.w3.org/2000/svg"
   xmlns="http://www.w3.org/2000/svg"
   xmlns:xlink="http://www.w3.org/1999/xlink"
   version="1.1"
   width="46"
   height="44"
   id="svg548"
   style="overflow:visible">
  <defs
     id="defs617">
    <linearGradient
       x1="23.6064"
       y1="42.4268"
       x2="23.6064"
       y2="4.5922999"
       id="XMLID_8_"
       gradientUnits="userSpaceOnUse">
      <stop
         id="stop552"
         style="stop-color:#ffff00;stop-opacity:1"
         offset="0" />
      <stop
         id="stop553"
         style="stop-color:#ffa700;stop-opacity:1"
         offset="1" />
      <a:midPointStop
         offset="0"
         style="stop-color:#FFFF00"
         id="midPointStop554" />
      <a:midPointStop
         offset="0.5"
         style="stop-color:#FFFF00"
         id="midPointStop555" />
      <a:midPointStop
         offset="1"
         style="stop-color:#FFA700"
         id="midPointStop556" />
    </linearGradient>
    <linearGradient
       x1="23.604"
       y1="4.5889001"
       x2="23.604"
       y2="42.422298"
       id="XMLID_9_"
       gradientUnits="userSpaceOnUse">
      <stop
         id="stop561"
         style="stop-color:#f8310e;stop-opacity:1"
         offset="0" />
      <stop
         id="stop562"
         style="stop-color:#cf0000;stop-opacity:1"
         offset="1" />
      <a:midPointStop
         offset="0"
         style="stop-color:#F8310E"
         id="midPointStop563" />
      <a:midPointStop
         offset="0.5"
         style="stop-color:#F8310E"
         id="midPointStop564" />
      <a:midPointStop
         offset="1"
         style="stop-color:#CF0000"
         id="midPointStop565" />
    </linearGradient>
    <linearGradient
       x1="2.5346999"
       y1="20.5308"
       x2="2.5346999"
       y2="20.5028"
       id="XMLID_10_"
       gradientUnits="userSpaceOnUse">
      <stop
         id="stop568"
         style="stop-color:#990000;stop-opacity:1"
         offset="0" />
      <stop
         id="stop569"
         style="stop-color:#7c0000;stop-opacity:1"
         offset="1" />
      <a:midPointStop
         offset="0"
         style="stop-color:#990000"
         id="midPointStop570" />
      <a:midPointStop
         offset="0.5"
         style="stop-color:#990000"
         id="midPointStop571" />
      <a:midPointStop
         offset="1"
         style="stop-color:#7C0000"
         id="midPointStop572" />
    </linearGradient>
    <linearGradient
       x1="3.0137"
       y1="6.3344998"
       x2="44.386902"
       y2="47.707699"
       id="XMLID_11_"
       gradientUnits="userSpaceOnUse">
      <stop
         id="stop575"
         style="stop-color:#ffff00;stop-opacity:1"
         offset="0.0056" />
      <stop
         id="stop576"
         style="stop-color:#ffd700;stop-opacity:1"
         offset="0.30340001" />
      <stop
         id="stop577"
         style="stop-color:#ff6d00;stop-opacity:1"
         offset="1" />
      <a:midPointStop
         offset="0.0056"
         style="stop-color:#FFFF00"
         id="midPointStop578" />
      <a:midPointStop
         offset="0.5"
         style="stop-color:#FFFF00"
         id="midPointStop579" />
      <a:midPointStop
         offset="0.3034"
         style="stop-color:#FFD700"
         id="midPointStop580" />
      <a:midPointStop
         offset="0.5"
         style="stop-color:#FFD700"
         id="midPointStop581" />
      <a:midPointStop
         offset="1"
         style="stop-color:#FF6D00"
         id="midPointStop582" />
    </linearGradient>
    <linearGradient
       x1="3.1489"
       y1="21.0093"
       x2="3.1489"
       y2="19.970501"
       id="XMLID_12_"
       gradientUnits="userSpaceOnUse">
      <stop
         id="stop585"
         style="stop-color:#990000;stop-opacity:1"
         offset="0" />
      <stop
         id="stop586"
         style="stop-color:#7c0000;stop-opacity:1"
         offset="1" />
      <a:midPointStop
         offset="0"
         style="stop-color:#990000"
         id="midPointStop587" />
      <a:midPointStop
         offset="0.5"
         style="stop-color:#990000"
         id="midPointStop588" />
      <a:midPointStop
         offset="1"
         style="stop-color:#7C0000"
         id="midPointStop589" />
    </linearGradient>
    <radialGradient
       cx="21.8999"
       cy="-65.741203"
       r="155.7337"
       fx="21.8999"
       fy="-65.741203"
       id="XMLID_13_"
       gradientUnits="userSpaceOnUse"
       gradientTransform="matrix(0.1875,0,0,0.1875,19.5,19.5)">
      <stop
         id="stop592"
         style="stop-color:#ff6666;stop-opacity:1"
         offset="0" />
      <stop
         id="stop593"
         style="stop-color:#f8310e;stop-opacity:1"
         offset="0.68540001" />
      <stop
         id="stop594"
         style="stop-color:#cf0000;stop-opacity:1"
         offset="1" />
      <a:midPointStop
         offset="0"
         style="stop-color:#FF6666"
         id="midPointStop595" />
      <a:midPointStop
         offset="0.5"
         style="stop-color:#FF6666"
         id="midPointStop596" />
      <a:midPointStop
         offset="0.6854"
         style="stop-color:#F8310E"
         id="midPointStop597" />
      <a:midPointStop
         offset="0.5"
         style="stop-color:#F8310E"
         id="midPointStop598" />
      <a:midPointStop
         offset="1"
         style="stop-color:#CF0000"
         id="midPointStop599" />
    </radialGradient>
    <linearGradient
       x1="19.329599"
       y1="16.675301"
       x2="34.494099"
       y2="31.8398"
       id="XMLID_14_"
       gradientUnits="userSpaceOnUse">
      <stop
         id="stop602"
         style="stop-color:#ffffff;stop-opacity:1"
         offset="0" />
      <stop
         id="stop603"
         style="stop-color:#ffe9e9;stop-opacity:1"
         offset="0.0513" />
      <stop
         id="stop604"
         style="stop-color:#ffacac;stop-opacity:1"
         offset="0.2024" />
      <stop
         id="stop605"
         style="stop-color:#ff7777;stop-opacity:1"
         offset="0.35260001" />
      <stop
         id="stop606"
         style="stop-color:#ff4d4d;stop-opacity:1"
         offset="0.4982" />
      <stop
         id="stop607"
         style="stop-color:#ff2b2b;stop-opacity:1"
         offset="0.63840002" />
      <stop
         id="stop608"
         style="stop-color:#ff1313;stop-opacity:1"
         offset="0.77179998" />
      <stop
         id="stop609"
         style="stop-color:#ff0505;stop-opacity:1"
         offset="0.89539999" />
      <stop
         id="stop610"
         style="stop-color:#ff0000;stop-opacity:1"
         offset="1" />
      <a:midPointStop
         offset="0"
         style="stop-color:#FFFFFF"
         id="midPointStop611" />
      <a:midPointStop
         offset="0.3277"
         style="stop-color:#FFFFFF"
         id="midPointStop612" />
      <a:midPointStop
         offset="1"
         style="stop-color:#FF0000"
         id="midPointStop613" />
    </linearGradient>
    <linearGradient
       x1="19.329599"
       y1="16.675301"
       x2="34.494099"
       y2="31.8398"
       id="linearGradient3060"
       xlink:href="#XMLID_14_"
       gradientUnits="userSpaceOnUse"
       gradientTransform="translate(-1,-2)" />
    <radialGradient
       cx="21.8999"
       cy="-65.741203"
       r="155.7337"
       fx="21.8999"
       fy="-65.741203"
       id="radialGradient3063"
       xlink:href="#XMLID_13_"
       gradientUnits="userSpaceOnUse"
       gradientTransform="matrix(0.1875,0,0,0.1875,18.5,17.5)" />
    <linearGradient
       x1="3.0137"
       y1="6.3344998"
       x2="44.386902"
       y2="47.707699"
       id="linearGradient3069"
       xlink:href="#XMLID_11_"
       gradientUnits="userSpaceOnUse"
       gradientTransform="translate(-1,-2)" />
    <linearGradient
       x1="23.604"
       y1="4.5889001"
       x2="23.604"
       y2="42.422298"
       id="linearGradient3075"
       xlink:href="#XMLID_9_"
       gradientUnits="userSpaceOnUse"
       gradientTransform="translate(-1,-2)" />
  </defs>
  <metadata
     id="metadata549">
    <xpacket
       id="xpacket6">begin='﻿' id='W5M0MpCehiHzreSzNTczkc9d'    </xpacket>
    <x:xmpmeta
       x:xmptk="XMP toolkit 3.0-29, framework 1.6">
      <metadata
         id="metadata51">
        <rdf:RDF>
          <rdf:Description
             rdf:about="uuid:36736415-db9c-437e-90df-f432a0f5520e" />
          <rdf:Description
             rdf:about="uuid:36736415-db9c-437e-90df-f432a0f5520e" />
          <rdf:Description
             rdf:about="uuid:36736415-db9c-437e-90df-f432a0f5520e">
            <xap:CreateDate>
2004-01-30T13:59:54Z</xap:CreateDate>
            <xap:ModifyDate>
2004-03-29T09:24:18Z</xap:ModifyDate>
            <xap:CreatorTool>
Adobe Illustrator 10.0</xap:CreatorTool>
            <xap:MetadataDate>
2004-02-16T22:08:55+01:00</xap:MetadataDate>
          </rdf:Description>
          <rdf:Description
             rdf:about="uuid:36736415-db9c-437e-90df-f432a0f5520e">
            <xapMM:DocumentID>
uuid:2d31fc08-1097-4e9b-9a77-fe0be499111f</xapMM:DocumentID>
          </rdf:Description>
          <rdf:Description
             rdf:about="uuid:36736415-db9c-437e-90df-f432a0f5520e">
            <dc:format>
image/svg+xml</dc:format>
          </rdf:Description>
          <cc:Work
             rdf:about="">
            <dc:format>image/svg+xml</dc:format>
            <dc:type
               rdf:resource="http://purl.org/dc/dcmitype/StillImage" />
            <dc:title></dc:title>
          </cc:Work>
        </rdf:RDF>
      </metadata>
    </x:xmpmeta>
    <xpacket
       id="xpacket8">end='w'    </xpacket>
  </metadata>
  <path
     d="m 21.912,2.785 c 0,0 -3.875,11.927 -4.257,13.103 -1.237,0 -13.777,0 -13.777,0 -0.831,0 -1.562,0.531 -1.819,1.321 l 0,0 c 0,0.004 -0.082,0.445 -0.082,0.445 L 1.961,17.739 1.965,17.8 c 0,0.591 0.281,1.148 0.747,1.509 0.279,0.211 1.811,1.324 11.187,8.136 -0.382,1.176 -4.28,13.173 -4.28,13.173 l -0.071,0.446 v 0.074 c 0,0.61 0.294,1.188 0.788,1.547 0.672,0.488 1.575,0.488 2.248,10e-4 0.002,-10e-4 10.268,-7.46 11.147,-8.099 1.001,0.728 11.146,8.098 11.146,8.098 0.673,0.488 1.576,0.488 2.248,10e-4 0.494,-0.359 0.789,-0.938 0.789,-1.548 v -0.074 l -0.071,-0.446 c 0,0 -3.897,-11.997 -4.28,-13.173 1.001,-0.728 11.146,-8.098 11.146,-8.098 0.494,-0.359 0.788,-0.938 0.788,-1.547 v -0.073 l -0.07,-0.447 -0.023,-0.071 c -0.257,-0.79 -0.988,-1.321 -1.818,-1.321 0,0 -12.541,0 -13.777,0 C 29.425,14.71 25.55,2.785 25.55,2.785 25.293,1.994 24.563,1.464 23.732,1.464 c -0.831,0 -1.563,0.53 -1.82,1.321 z M 2.678,19.282 C 2.662,19.269 2.642,19.251 2.642,19.251 c 0.006,0.007 0.012,0.013 0.036,0.031 z"
     id="path558"
     style="opacity:0.2" />
  <path
     d="m 21.162,2.41 c 0,0 -3.875,11.927 -4.257,13.103 -1.237,0 -13.777,0 -13.777,0 -0.831,0 -1.562,0.531 -1.819,1.321 l 0,0 c 0,0.004 -0.082,0.445 -0.082,0.445 l -0.016,0.085 0.004,0.061 c 0,0.591 0.281,1.148 0.747,1.509 0.279,0.211 1.811,1.324 11.187,8.136 -0.382,1.176 -4.28,13.173 -4.28,13.173 l -0.071,0.446 v 0.074 c 0,0.61 0.294,1.188 0.788,1.547 0.672,0.488 1.575,0.488 2.248,10e-4 0.002,-10e-4 10.268,-7.46 11.147,-8.099 1,0.728 11.146,8.098 11.146,8.098 0.673,0.488 1.576,0.488 2.248,10e-4 0.494,-0.359 0.789,-0.938 0.789,-1.548 v -0.074 l -0.071,-0.446 c 0,0 -3.897,-11.997 -4.28,-13.173 1.001,-0.728 11.146,-8.098 11.146,-8.098 0.494,-0.359 0.788,-0.938 0.788,-1.547 v -0.073 l -0.07,-0.447 -0.023,-0.071 c -0.257,-0.79 -0.988,-1.321 -1.818,-1.321 0,0 -12.541,0 -13.777,0 C 28.675,14.335 24.8,2.41 24.8,2.41 24.543,1.619 23.813,1.089 22.982,1.089 c -0.831,0 -1.563,0.53 -1.82,1.321 z M 1.928,18.907 C 1.912,18.894 1.892,18.876 1.892,18.876 c 0.006,0.007 0.012,0.013 0.036,0.031 z"
     id="path559"
     style="opacity:0.2" />
  <path
     d="m 20.787,2.035 c 0,0 -3.875,11.927 -4.257,13.103 -1.237,0 -13.777,0 -13.777,0 -0.831,0 -1.562,0.531 -1.819,1.321 l 0,0 c 0,0.004 -0.082,0.445 -0.082,0.445 L 0.836,16.989 0.84,17.05 c 0,0.591 0.281,1.148 0.747,1.509 0.279,0.211 1.811,1.324 11.187,8.136 -0.382,1.176 -4.28,13.173 -4.28,13.173 l -0.071,0.446 v 0.074 c 0,0.61 0.294,1.188 0.788,1.547 0.672,0.488 1.575,0.488 2.248,10e-4 0.002,-10e-4 10.268,-7.46 11.147,-8.099 1,0.728 11.146,8.098 11.146,8.098 0.673,0.488 1.576,0.488 2.248,10e-4 0.494,-0.359 0.789,-0.938 0.789,-1.548 v -0.074 l -0.071,-0.446 c 0,0 -3.897,-11.997 -4.28,-13.173 1.001,-0.728 11.146,-8.098 11.146,-8.098 0.494,-0.359 0.788,-0.938 0.788,-1.547 v -0.073 l -0.07,-0.447 -0.023,-0.071 c -0.257,-0.79 -0.988,-1.321 -1.818,-1.321 0,0 -12.541,0 -13.777,0 C 28.3,13.96 24.425,2.035 24.425,2.035 24.168,1.244 23.438,0.714 22.607,0.714 c -0.831,0 -1.563,0.53 -1.82,1.321 z"
     id="path566"
     style="fill:url(#linearGradient3075)" />
  <path
     d="M 21.5,2.267 17.243,15.37 c -0.101,0.309 -0.388,0.518 -0.713,0.518 H 2.753 c -0.497,0 -0.933,0.315 -1.095,0.783 -0.014,0.078 -0.035,0.19 -0.068,0.367 0,0.004 0,0.013 0,0.013 0,0.353 0.17,0.695 0.456,0.916 0.271,0.205 1.935,1.414 11.169,8.122 0.198,0.145 0.309,0.372 0.309,0.607 0,0.077 -0.012,0.155 -0.037,0.231 0,0 -4.226,13.006 -4.262,13.117 -0.012,0.074 -0.041,0.254 -0.052,0.329 0,0.005 0,0.016 0,0.016 0,0.371 0.179,0.723 0.479,0.94 0.409,0.297 0.958,0.297 1.367,0 l 11.146,-8.098 c 0.263,-0.19 0.619,-0.19 0.881,0 l 11.146,8.098 c 0.408,0.297 0.957,0.297 1.366,0 0.3,-0.218 0.479,-0.569 0.479,-0.94 0,0 0,-0.011 0,-0.016 -0.012,-0.074 -0.041,-0.255 -0.053,-0.329 -0.036,-0.111 -4.262,-13.117 -4.262,-13.117 -0.025,-0.076 -0.037,-0.154 -0.037,-0.231 0,-0.235 0.111,-0.463 0.31,-0.607 l 11.146,-8.098 c 0.301,-0.218 0.479,-0.57 0.479,-0.94 0,0 0,-0.01 0,-0.015 -0.012,-0.075 -0.04,-0.255 -0.052,-0.33 -0.002,-0.005 -0.005,-0.015 -0.005,-0.015 -0.156,-0.48 -0.601,-0.803 -1.105,-0.803 H 28.683 c -0.325,0 -0.613,-0.209 -0.714,-0.518 L 23.712,2.267 C 23.556,1.787 23.111,1.464 22.607,1.464 22.101,1.463 21.657,1.786 21.5,2.267 z"
     id="path583"
     style="fill:url(#linearGradient3069)" />
  <path
     d="m 18.668,17.293 c -0.105,0.324 -0.408,0.544 -0.749,0.544 0,0 -9.321,0 -12.743,0 2.768,2.011 10.309,7.49 10.309,7.49 0.208,0.151 0.325,0.391 0.325,0.638 0,0.081 -0.013,0.163 -0.039,0.243 0,0 -2.88,8.865 -3.938,12.119 2.769,-2.012 10.309,-7.49 10.309,-7.49 0.276,-0.2 0.65,-0.2 0.926,0 0,0 7.541,5.479 10.309,7.49 -1.058,-3.254 -3.938,-12.119 -3.938,-12.119 -0.026,-0.08 -0.038,-0.162 -0.038,-0.243 0,-0.247 0.116,-0.486 0.324,-0.638 0,0 7.541,-5.479 10.31,-7.49 -3.422,0 -12.743,0 -12.743,0 -0.341,0 -0.644,-0.22 -0.749,-0.544 0,0 -2.88,-8.865 -3.938,-12.12 -1.056,3.256 -3.937,12.12 -3.937,12.12 z"
     id="path600"
     style="fill:url(#radialGradient3063)" />
  <path
     d="m 20.428,17.003 0,0 c -0.379,1.166 -1.457,1.948 -2.681,1.948 0,0 -4.382,0 -7.05,0 2.158,1.568 5.704,4.143 5.704,4.143 0.664,0.483 1.065,1.238 1.134,2.048 1.646,0.396 3.346,0.607 5.072,0.607 1.726,0 3.427,-0.212 5.072,-0.607 0.068,-0.81 0.47,-1.564 1.133,-2.047 10e-4,-10e-4 3.441,-2.5 5.704,-4.144 -2.668,0 -7.05,0 -7.05,0 -1.225,0 -2.302,-0.783 -2.681,-1.948 -0.001,-0.001 -1.314,-4.045 -2.179,-6.705 -0.824,2.538 -2.178,6.705 -2.178,6.705 z"
     id="path614"
     style="fill:url(#linearGradient3060)" />
</svg>
